<?xml version="1.0" encoding="utf-8"?>
<svg version="1.1" xmlns:xlink="http://www.w3.org/1999/xlink" width="10px" height="20px" xmlns="http://www.w3.org/2000/svg">
  <g transform="matrix(1 0 0 1 -20 -22 )">
    <path d="M 9.828178694158074 1.2024048096192375  C 9.942726231386027 1.3360053440213737  10 1.4896459585838318  10 1.6633266533066138  C 10 1.8370073480293914  9.942726231386027 1.9906479625918494  9.828178694158074 2.124248496993988  L 3.075601374570447 10  L 9.828178694158074 17.87575150300601  C 9.942726231386027 18.00935203740815  10 18.162992651970605  10 18.336673346693388  C 10 18.510354041416164  9.942726231386027 18.663994655978623  9.828178694158074 18.79759519038076  L 8.969072164948454 19.799599198396795  C 8.854524627720505 19.933199732798933  8.722794959908363 20  8.573883161512027 20  C 8.424971363115695 20  8.293241695303553 19.933199732798933  8.1786941580756 19.799599198396795  L 0.1718213058419244 10.460921843687373  C 0.05727376861397484 10.327321309285235  0 10.173680694722778  0 10  C 0 9.82631930527722  0.05727376861397484 9.672678690714761  0.1718213058419244 9.539078156312627  L 8.1786941580756 0.2004008016032066  C 8.293241695303553 0.06680026720106813  8.424971363115695 0  8.573883161512027 0  C 8.722794959908363 0  8.854524627720505 0.06680026720106813  8.969072164948454 0.2004008016032066  L 9.828178694158074 1.2024048096192375  Z "  fill="currentFill" stroke="currentFill" transform="matrix(1 0 0 1 20 22 )" />
  </g>
</svg>