<svg xmlns="http://www.w3.org/2000/svg" width="15" height="17" viewBox="0 0 15 17">
  <path d="M1.1538,13.0536v2.7321H3.75V13.0536Zm3.1731,0v2.7321H7.2115V13.0536ZM1.1538,9.4107v3.0357H3.75V9.4107Zm3.1731,0v3.0357H7.2115V9.4107ZM1.1538,6.0714V8.8036H3.75V6.0714Zm6.6347,6.9822v2.7321h2.8846V13.0536ZM4.3269,6.0714V8.8036H7.2115V6.0714ZM11.25,13.0536v2.7321h2.5962V13.0536ZM7.7885,9.4107v3.0357h2.8846V9.4107ZM4.53,4.4634A.2992.2992,0,0,0,4.6154,4.25V1.5179A.3.3,0,0,0,4.53,1.3044a.27.27,0,0,0-.2028-.09H3.75a.2705.2705,0,0,0-.2028.09.3.3,0,0,0-.0857.2135V4.25a.2992.2992,0,0,0,.0857.2134.2706.2706,0,0,0,.2028.09h.5769A.27.27,0,0,0,4.53,4.4634Zm6.72,4.9473v3.0357h2.5962V9.4107ZM7.7885,6.0714V8.8036h2.8846V6.0714Zm3.4615,0V8.8036h2.5962V6.0714Zm.2028-1.608a.2992.2992,0,0,0,.0857-.2134V1.5179a.3.3,0,0,0-.0857-.2135.2705.2705,0,0,0-.2028-.09h-.5769a.27.27,0,0,0-.2028.09.3.3,0,0,0-.0857.2135V4.25a.2992.2992,0,0,0,.0857.2134.27.27,0,0,0,.2028.09H11.25A.2706.2706,0,0,0,11.4528,4.4634Zm3.2047-1.6743A1.1979,1.1979,0,0,1,15,3.6429V15.7857a1.1979,1.1979,0,0,1-.3425.8538,1.0827,1.0827,0,0,1-.8113.36H1.1538a1.0827,1.0827,0,0,1-.8113-.36A1.1979,1.1979,0,0,1,0,15.7857V3.6429a1.1979,1.1979,0,0,1,.3425-.8538,1.0823,1.0823,0,0,1,.8113-.3605H2.3077V1.5179A1.5,1.5,0,0,1,2.7314.4459,1.3549,1.3549,0,0,1,3.75,0h.5769A1.3552,1.3552,0,0,1,5.3456.4459a1.5008,1.5008,0,0,1,.4236,1.072v.9107H9.2308V1.5179A1.5008,1.5008,0,0,1,9.6544.4459,1.3552,1.3552,0,0,1,10.6731,0H11.25a1.3549,1.3549,0,0,1,1.0186.4459,1.5,1.5,0,0,1,.4237,1.072v.9107h1.1539A1.0823,1.0823,0,0,1,14.6575,2.7891Z" fill="currentFill"/>
</svg>
