<?xml version="1.0" encoding="utf-8"?>
<svg version="1.1" xmlns:xlink="http://www.w3.org/1999/xlink" width="12px" height="12px" xmlns="http://www.w3.org/2000/svg">
  <g transform="matrix(1 0 0 1 -213 -748 )">
    <path d="M 11.803893876727528 1.1256214782896898  C 11.595682437203669 0.49850845210474  11.179259558155955 0.15644680145840187  10.658730959346311 0.15644680145840187  C 10.190255220417633 0.09943652635067934  9.721779481488953 0.38448790188929394  9.461515182084131 0.8405701027510771  C 7.899929385655199 3.3490222074908838  6.234237869464339 5.857474312230693  4.516493493392513 8.365926416970499  C 4.204176334106727 8.080875041431884  3.891859174820941 7.79582366589327  3.5795420155351554 7.510772290354655  C 3.1631191364874387 7.111700364600596  2.7466962574397247 6.769638713954258  2.382326238272973 6.370566788200197  C 1.7056390598204358 5.743453762015246  0.8727933017250056 5.9714948624461375  0.4043175627963266 6.541597613523367  C -0.06415817613235343 7.168710639708318  -0.012105316251389397 7.909844216108716  0.5084232825582546 8.479946967185946  C 1.4453747604156137 9.39211136890951  2.382326238272972 10.247265495525355  3.3192777161303324 11.159429897248922  L 3.735700595178049 11.558501823002981  C 3.9959648945828707 11.78654292343387  4.360334913749621 11.95757374875704  4.724704932916371 11.95757374875704  C 4.776757792797335 11.95757374875704  4.8288106526783 11.95757374875704  4.880863512559265 11.95757374875704  C 5.193180671845051 11.900563473649317  5.453444971249873 11.78654292343387  5.661656410773729 11.501491547895256  C 7.847876525774234 8.479946967185942  9.877938061131847 5.4013921113689065  11.699788156965598 2.436857805767316  C 11.96005245637042 2.0377858800132547  12.012105316251386 1.5246934040437494  11.803893876727528 1.1256214782896898  Z " fill-rule="nonzero" fill="#000000" stroke="none" transform="matrix(1 0 0 1 213 748 )" />
  </g>
</svg>