<?xml version="1.0" encoding="utf-8"?>
<!-- Generator: Adobe Illustrator 24.0.0, SVG Export Plug-In . SVG Version: 6.00 Build 0)  -->
<svg version="1.1" id="Layer_1" xmlns="http://www.w3.org/2000/svg" xmlns:xlink="http://www.w3.org/1999/xlink" x="0px" y="0px"
	 viewBox="0 0 43.1 43.1" style="enable-background:new 0 0 43.1 43.1;" xml:space="preserve">
<g>
	<path d="M36.3,5.3h-7.1l-0.5-1.6c-0.6-2-2.5-3.4-4.6-3.4h-5.3c-2,0-4,1.5-4.6,3.4l-0.5,1.6H6.7c-1.1,0-2,0.9-2,2c0,1.1,0.9,2,2,2
		h29.7c1.1,0,2-0.9,2-2C38.3,6.2,37.4,5.3,36.3,5.3z M25.1,5.3H18l0.1-0.5c0.1-0.2,0.5-0.5,0.7-0.5h5.4c0.3,0,0.7,0.3,0.7,0.5
		L25.1,5.3z"/>
	<path d="M15.6,36.5C15.6,36.5,15.6,36.5,15.6,36.5c1,0,1.7-0.8,1.7-1.7l-0.6-20.2c0-0.5-0.2-0.9-0.5-1.2c-0.3-0.3-0.8-0.5-1.2-0.5
		c-0.9,0-1.7,0.8-1.6,1.7l0.6,20.2l0,0C13.9,35.8,14.7,36.5,15.6,36.5z"/>
	<path d="M34.7,10.3c-1.1,0-2,0.8-2.1,1.9l-1.1,26.1c0,0.2-0.2,0.5-0.5,0.5H12c-0.2,0-0.5-0.2-0.5-0.5l-1.1-26.1
		c0-1.1-1-1.9-2.1-1.9c-1.1,0-1.9,1-1.9,2.1l1.1,26.1c0.1,2.4,2.1,4.3,4.5,4.3h19c2.4,0,4.4-1.9,4.5-4.3l1.1-26.1
		C36.6,11.3,35.8,10.4,34.7,10.3z"/>
	<path d="M23.2,34.9V14.7c0-0.9-0.8-1.7-1.7-1.7s-1.7,0.8-1.7,1.7v20.2c0,0.9,0.8,1.7,1.7,1.7S23.2,35.8,23.2,34.9z"/>
	<path d="M27.4,36.5c0.4,0,0.8-0.2,1.2-0.5c0.3-0.3,0.5-0.7,0.5-1.2l0.6-20.2c0-0.9-0.7-1.7-1.6-1.7c-0.5,0-0.9,0.1-1.2,0.5
		c-0.3,0.3-0.5,0.7-0.5,1.2l-0.6,20.2C25.7,35.7,26.5,36.5,27.4,36.5C27.4,36.5,27.4,36.5,27.4,36.5z"/>
</g>
</svg>
