<svg xmlns="http://www.w3.org/2000/svg" width="20" height="20" viewBox="0 0 20 20">
    <g fill="none" fill-opacity=".88" fill-rule="evenodd">
        <g fill="#FFF">
            <g>
                <g>
                    <path d="M12.19 10.667c2.05 0 3.72 1.617 3.806 3.644l.004.165V16c0 .42-.341.762-.762.762-.39 0-.713-.294-.757-.673L14.476 16v-1.524c0-1.217-.951-2.212-2.151-2.282l-.135-.004H6.095c-1.217 0-2.212.952-2.282 2.152l-.003.134V16c0 .42-.342.762-.762.762-.391 0-.713-.294-.757-.673L2.286 16v-1.524c0-2.048 1.617-3.72 3.644-3.806l.165-.003h6.095zM9.143 1.524c2.104 0 3.81 1.705 3.81 3.81 0 2.103-1.706 3.809-3.81 3.809s-3.81-1.706-3.81-3.81 1.706-3.81 3.81-3.81zm0 1.524c-1.263 0-2.286 1.023-2.286 2.285 0 1.263 1.023 2.286 2.286 2.286 1.262 0 2.286-1.023 2.286-2.286 0-1.262-1.024-2.285-2.286-2.285z" transform="translate(-26.000000, -22.000000) translate(20.000000, 16.000000) translate(6.857143, 6.857143)"/>
                </g>
            </g>
        </g>
    </g>
</svg>
